<svg width="20" height="20" viewBox="0 0 20 20" fill="none" xmlns="http://www.w3.org/2000/svg">
<path d="M14.5834 4.58335H12.0084C12.075 4.39509 12.0955 4.19363 12.0682 3.99582C12.0409 3.79802 11.9666 3.60963 11.8515 3.44643C11.7365 3.28323 11.584 3.14997 11.4069 3.0578C11.2297 2.96564 11.0331 2.91725 10.8334 2.91669H9.16675C8.96707 2.91725 8.77043 2.96564 8.59329 3.0578C8.41616 3.14997 8.26368 3.28323 8.14862 3.44643C8.03357 3.60963 7.95928 3.79802 7.93199 3.99582C7.9047 4.19363 7.92519 4.39509 7.99175 4.58335H5.41675C5.08523 4.58335 4.76728 4.71505 4.53286 4.94947C4.29844 5.18389 4.16675 5.50183 4.16675 5.83335C4.16675 6.16487 4.29844 6.48282 4.53286 6.71724C4.76728 6.95166 5.08523 7.08335 5.41675 7.08335V15.4167C5.41675 15.8587 5.59234 16.2826 5.9049 16.5952C6.21746 16.9078 6.64139 17.0834 7.08342 17.0834H12.9167C13.3588 17.0834 13.7827 16.9078 14.0953 16.5952C14.4078 16.2826 14.5834 15.8587 14.5834 15.4167V7.08335C14.9149 7.08335 15.2329 6.95166 15.4673 6.71724C15.7017 6.48282 15.8334 6.16487 15.8334 5.83335C15.8334 5.50183 15.7017 5.18389 15.4673 4.94947C15.2329 4.71505 14.9149 4.58335 14.5834 4.58335ZM8.75008 4.16669C8.75008 4.05618 8.79398 3.9502 8.87212 3.87206C8.95026 3.79392 9.05624 3.75002 9.16675 3.75002H10.8334C10.9439 3.75002 11.0499 3.79392 11.128 3.87206C11.2062 3.9502 11.2501 4.05618 11.2501 4.16669C11.2501 4.27719 11.2062 4.38317 11.128 4.46131C11.0499 4.53946 10.9439 4.58335 10.8334 4.58335H9.16675C9.05624 4.58335 8.95026 4.53946 8.87212 4.46131C8.79398 4.38317 8.75008 4.27719 8.75008 4.16669ZM13.7501 15.4167C13.7501 15.6377 13.6623 15.8497 13.506 16.0059C13.3497 16.1622 13.1378 16.25 12.9167 16.25H7.08342C6.8624 16.25 6.65044 16.1622 6.49416 16.0059C6.33788 15.8497 6.25008 15.6377 6.25008 15.4167V7.08335H13.7501V15.4167ZM14.5834 6.25002H5.41675C5.30624 6.25002 5.20026 6.20612 5.12212 6.12798C5.04398 6.04984 5.00008 5.94386 5.00008 5.83335C5.00008 5.72285 5.04398 5.61687 5.12212 5.53873C5.20026 5.46059 5.30624 5.41669 5.41675 5.41669H14.5834C14.6939 5.41669 14.7999 5.46059 14.878 5.53873C14.9562 5.61687 15.0001 5.72285 15.0001 5.83335C15.0001 5.94386 14.9562 6.04984 14.878 6.12798C14.7999 6.20612 14.6939 6.25002 14.5834 6.25002ZM7.50008 14.6167V8.75002C7.50008 8.63951 7.54398 8.53353 7.62212 8.45539C7.70026 8.37725 7.80624 8.33335 7.91675 8.33335C8.02726 8.33335 8.13324 8.37725 8.21138 8.45539C8.28952 8.53353 8.33342 8.63951 8.33342 8.75002V14.5834C8.33342 14.6939 8.28952 14.7998 8.21138 14.878C8.13324 14.9561 8.02726 15 7.91675 15C7.80624 15 7.70026 14.9561 7.62212 14.878C7.54398 14.7998 7.50008 14.6939 7.50008 14.5834V14.6167ZM11.6667 14.6167V8.75002C11.6667 8.63951 11.7106 8.53353 11.7888 8.45539C11.8669 8.37725 11.9729 8.33335 12.0834 8.33335C12.1939 8.33335 12.2999 8.37725 12.378 8.45539C12.4562 8.53353 12.5001 8.63951 12.5001 8.75002V14.5834C12.5001 14.6939 12.4562 14.7998 12.378 14.878C12.2999 14.9561 12.1939 15 12.0834 15C11.9729 15 11.8669 14.9561 11.7888 14.878C11.7106 14.7998 11.6667 14.6939 11.6667 14.5834V14.6167ZM9.58342 13.3667V10C9.58342 9.88951 9.62731 9.78353 9.70545 9.70539C9.78359 9.62725 9.88958 9.58335 10.0001 9.58335C10.1106 9.58335 10.2166 9.62725 10.2947 9.70539C10.3729 9.78353 10.4167 9.88951 10.4167 10V13.3334C10.4167 13.4439 10.3729 13.5498 10.2947 13.628C10.2166 13.7061 10.1106 13.75 10.0001 13.75C9.88958 13.75 9.78359 13.7061 9.70545 13.628C9.62731 13.5498 9.58342 13.4439 9.58342 13.3334V13.3667Z" fill="#FF2E00"/>
</svg>
