<svg width="14" height="14" viewBox="0 0 14 14" fill="none" xmlns="http://www.w3.org/2000/svg">
<g clip-path="url(#clip0_149_551)">
<path d="M10.6167 14H2.21667C0.991667 14 0 13.0083 0 11.7833V3.38333C0 2.15833 0.991667 1.16666 2.21667 1.16666H6.41667C6.76667 1.16666 7 1.4 7 1.75C7 2.1 6.76667 2.33333 6.41667 2.33333H2.21667C1.63333 2.33333 1.16667 2.8 1.16667 3.38333V11.725C1.16667 12.3083 1.63333 12.775 2.21667 12.775H10.5583C11.1417 12.775 11.6083 12.3083 11.6083 11.725V7.58333C11.6083 7.23333 11.8417 7 12.1917 7C12.5417 7 12.775 7.23333 12.775 7.58333V11.7833C12.8333 13.0083 11.8417 14 10.6167 14Z" fill="#0B2880"/>
<path d="M3.49935 11.0833C3.32435 11.0833 3.20768 11.025 3.09102 10.9083C2.97435 10.7917 2.91602 10.5583 2.91602 10.3833L3.49935 7.46667C3.49935 7.35 3.55768 7.23333 3.67435 7.175L10.6743 0.175C10.9077 -0.0583333 11.2577 -0.0583333 11.491 0.175L13.8244 2.50833C14.0577 2.74167 14.0577 3.09167 13.8244 3.325L6.82435 10.325C6.76602 10.3833 6.64935 10.4417 6.53268 10.5L3.61602 11.0833H3.49935ZM4.60768 7.875L4.25768 9.74167L6.12435 9.39167L12.5993 2.91667L11.0827 1.4L4.60768 7.875Z" fill="#0B2880"/>
</g>
<defs>
<clipPath id="clip0_149_551">
<rect width="14" height="14" fill="white"/>
</clipPath>
</defs>
</svg>
