<svg width="326" height="382" viewBox="0 0 326 382" fill="none" xmlns="http://www.w3.org/2000/svg">
<path fill-rule="evenodd" clip-rule="evenodd" d="M114.022 381.989C73.7565 382.892 54.6019 328.866 22.5052 302.993C-8.61926 277.904 -50.3968 268.284 -70.8947 232.929C-94.4886 192.235 -105.214 143.026 -97.5546 95.9172C-89.182 44.419 -67.1151 -7.21622 -26.9555 -37.3352C12.9738 -67.2815 65.1638 -62.4357 114.022 -62.7614C163.218 -63.0894 217.614 -71.5617 256.289 -39.2234C294.607 -7.18378 299.425 50.6852 310.17 101.249C319.905 147.06 337.417 197.924 315.326 238.592C293.781 278.255 238.562 273.459 202.777 298.95C169.217 322.856 154.405 381.083 114.022 381.989Z" fill="#FF9100" fill-opacity="0.2"/>
</svg>
